HIERARCHY
ROOT Hips
{
	OFFSET 0.00000 0.00000 0.00000
	CHANNELS 6 Xposition Yposition Zposition Zrotation Yrotation Xrotation 
	JOINT LHipJoint
	{
		OFFSET 0 0 0
		CHANNELS 3 Zrotation Yrotation Xrotation
		JOINT LeftUpLeg
		{
			OFFSET 1.54859 -1.61379 0.86856
			CHANNELS 3 Zrotation Yrotation Xrotation
			JOINT LeftLeg
			{
				OFFSET 2.25087 -6.18423 0.00000
				CHANNELS 3 Zrotation Yrotation Xrotation
				JOINT LeftFoot
				{
					OFFSET 2.40328 -6.60297 0.00000
					CHANNELS 3 Zrotation Yrotation Xrotation
					JOINT LeftToeBase
					{
						OFFSET 0.17435 -0.47901 2.02453
						CHANNELS 3 Zrotation Yrotation Xrotation
						End Site
						{
							OFFSET 0.00000 -0.00000 1.04844
						}
					}
				}
			}
		}
	}
	JOINT RHipJoint
	{
		OFFSET 0 0 0
		CHANNELS 3 Zrotation Yrotation Xrotation
		JOINT RightUpLeg
		{
			OFFSET -1.54669 -1.61379 0.86856
			CHANNELS 3 Zrotation Yrotation Xrotation
			JOINT RightLeg
			{
				OFFSET -2.28132 -6.26789 0.00000
				CHANNELS 3 Zrotation Yrotation Xrotation
				JOINT RightFoot
				{
					OFFSET -2.51636 -6.91365 0.00000
					CHANNELS 3 Zrotation Yrotation Xrotation
					JOINT RightToeBase
					{
						OFFSET -0.15124 -0.41552 2.21090
						CHANNELS 3 Zrotation Yrotation Xrotation
						End Site
						{
							OFFSET -0.00000 -0.00000 1.13399
						}
					}
				}
			}
		}
	}
	JOINT LowerBack
	{
		OFFSET 0 0 0
		CHANNELS 3 Zrotation Yrotation Xrotation
		JOINT Spine
		{
			OFFSET -0.04287 2.26161 -0.25690
			CHANNELS 3 Zrotation Yrotation Xrotation
			JOINT Spine1
			{
				OFFSET 0.02248 2.28395 -0.10140
				CHANNELS 3 Zrotation Yrotation Xrotation
				JOINT Neck
				{
					OFFSET 0 0 0
					CHANNELS 3 Zrotation Yrotation Xrotation
					JOINT Neck1
					{
						OFFSET -0.11644 1.38496 0.11345
						CHANNELS 3 Zrotation Yrotation Xrotation
						JOINT Head
						{
							OFFSET 0.29383 1.36600 0.06642
							CHANNELS 3 Zrotation Yrotation Xrotation
							End Site
							{
								OFFSET 0.11075 1.41395 -0.00294
							}
						}
					}
				}
				JOINT LeftShoulder
				{
					OFFSET 0 0 0
					CHANNELS 3 Zrotation Yrotation Xrotation
					JOINT LeftArm
					{
						OFFSET 3.51628 0.59542 -0.30346
						CHANNELS 3 Zrotation Yrotation Xrotation
						JOINT LeftForeArm
						{
							OFFSET 4.76405 -0.00000 0.00000
							CHANNELS 3 Zrotation Yrotation Xrotation
							JOINT LeftHand
							{
								OFFSET 3.13759 -0.00000 -0.00000
								CHANNELS 3 Zrotation Yrotation Xrotation
								JOINT LeftFingerBase
								{
									OFFSET 0 0 0
									CHANNELS 3 Zrotation Yrotation Xrotation
									JOINT LeftHandIndex1
									{
										OFFSET 0.73226 -0.00000 -0.00000
										CHANNELS 3 Zrotation Yrotation Xrotation
										End Site
										{
											OFFSET 0.59037 -0.00000 -0.00000
										}
									}
								}
								JOINT LThumb
								{
									OFFSET 0 0 0
									CHANNELS 3 Zrotation Yrotation Xrotation
									End Site
									{
										OFFSET 0.59938 -0.00000 0.59938
									}
								}
							}
						}
					}
				}
				JOINT RightShoulder
				{
					OFFSET 0 0 0
					CHANNELS 3 Zrotation Yrotation Xrotation
					JOINT RightArm
					{
						OFFSET -3.30990 0.84213 -0.36430
						CHANNELS 3 Zrotation Yrotation Xrotation
						JOINT RightForeArm
						{
							OFFSET -5.10161 -0.00000 -0.00000
							CHANNELS 3 Zrotation Yrotation Xrotation
							JOINT RightHand
							{
								OFFSET -3.23267 -0.00000 -0.00000
								CHANNELS 3 Zrotation Yrotation Xrotation
								JOINT RightFingerBase
								{
									OFFSET 0 0 0
									CHANNELS 3 Zrotation Yrotation Xrotation
									JOINT RightHandIndex1
									{
										OFFSET -0.70200 -0.00000 -0.00000
										CHANNELS 3 Zrotation Yrotation Xrotation
										End Site
										{
											OFFSET -0.56597 -0.00000 -0.00000
										}
									}
								}
								JOINT RThumb
								{
									OFFSET 0 0 0
									CHANNELS 3 Zrotation Yrotation Xrotation
									End Site
									{
										OFFSET -0.57461 -0.00000 0.57461
									}
								}
							}
						}
					}
				}
			}
		}
	}
}
MOTION
Frames: 14
Frame Time: .0083333
-4.0345 14.7809 -3.6717 1.5353 14.7687 17.4529 0.0000 0.0000 0.0000 -14.4576 5.6204 -39.4945 10.1595 17.4986 60.0201 -0.1894 -23.0557 -14.8638 1.2744 -7.1548 -20.1748 0.0000 0.0000 0.0000 4.7061 5.7288 -20.1848 -13.5839 -18.9829 70.9295 -0.1589 -0.7844 -7.8574 -4.5056 12.8045 -38.6409 -7.9365 -1.1754 25.4281 0.1825 -3.2109 8.9971 5.6099 -1.6387 -3.6124 -12.1203 -2.8587 -12.1272 18.9864 -0.9421 -14.7494 8.0345 -0.2143 -2.0070 -0.0000 0.0000 0.0000 -96.8842 -52.3746 66.1010 23.6062 -34.7451 -7.4810 -0.0000 0.0000 -5.9865 17.2713 32.6053 9.5108 -7.1250 0.0000 -0.0000 -18.2772 62.8847 -8.0782 -0.0000 0.0000 0.0000 81.3063 16.0697 15.3639 -57.1587 55.5040 -31.9879 0.0000 -0.0000 -17.1454 -39.9775 34.3183 -25.3000 7.1250 -0.0000 -0.0000 -3.8207 11.6332 -4.5216
-3.7586 14.7875 -3.4578 1.3453 15.9321 17.3140 0.0000 0.0000 0.0000 -15.0508 4.9991 -37.5382 9.8836 17.3439 59.0987 -0.0386 -23.0628 -15.9821 1.0074 -6.3866 -17.9104 0.0000 0.0000 0.0000 5.2021 5.1371 -23.2226 -14.7266 -19.3198 74.4117 -0.1962 -2.2546 -9.5113 -4.6030 12.9222 -39.0781 -7.4687 -1.4390 25.4892 0.3061 -3.4370 8.8196 5.5480 -1.7267 -3.8336 -11.7703 -2.8641 -11.6297 18.7902 -1.1818 -13.6984 7.8688 -0.3513 -1.7517 -0.0000 0.0000 0.0000 -99.0273 -50.9518 62.3221 19.7558 -30.3470 -5.4074 -0.0000 0.0000 -7.8956 19.5611 29.0804 9.7982 -7.1250 0.0000 -0.0000 -13.1192 60.0494 -4.8675 -0.0000 0.0000 0.0000 82.1549 17.1938 18.5396 -55.1151 54.8611 -30.3101 0.0000 -0.0000 -13.9750 -39.4671 34.6706 -25.0975 7.1250 -0.0000 -0.0000 -3.4537 11.8123 -4.0942
-3.4939 14.8010 -3.2298 0.6964 16.1204 16.9892 0.0000 0.0000 0.0000 -15.4126 5.4247 -35.5027 9.5596 17.1546 58.0060 0.2094 -22.7655 -17.5293 0.9350 -6.1593 -17.2474 0.0000 0.0000 0.0000 6.0347 5.3944 -26.3104 -15.7353 -19.5582 77.4421 -0.2221 -4.1720 -11.4343 -4.3208 12.5755 -37.7995 -7.2833 -1.4121 25.4542 0.3852 -3.3668 8.6042 5.5174 -1.6765 -4.0751 -11.4226 -2.5911 -11.4265 18.4628 -1.0787 -12.1058 7.6641 -0.2846 -1.3527 -0.0000 0.0000 0.0000 -99.9151 -49.3391 56.6219 16.7650 -26.5469 -3.9817 -0.0000 0.0000 -4.7143 21.1398 25.4645 9.4390 -7.1250 0.0000 -0.0000 -9.4421 56.7778 -2.7425 -0.0000 0.0000 0.0000 83.3348 18.4496 22.0597 -52.7882 54.0600 -28.4165 0.0000 -0.0000 -10.7912 -38.6022 35.0273 -24.6185 7.1250 -0.0000 -0.0000 -2.9012 11.8615 -3.4395
-3.2254 14.8111 -2.9988 0.0420 16.3958 16.6406 0.0000 0.0000 0.0000 -15.7310 5.8065 -33.4047 9.2197 16.9470 56.8469 0.4869 -22.1824 -19.0482 1.0049 -6.3787 -17.8873 0.0000 0.0000 0.0000 6.9562 5.3406 -29.4164 -16.5813 -19.7175 79.9591 -0.2517 -6.1413 -13.6856 -3.7146 11.7706 -34.9252 -6.8254 -1.5521 25.4673 0.3601 -3.4555 8.3423 5.2634 -1.6948 -4.3972 -10.8695 -2.3514 -10.1552 18.5940 -0.9265 -11.8652 7.6094 -0.2898 -1.5111 -0.0000 -0.0000 0.0000 -101.0443 -47.7557 47.9087 13.7482 -22.3736 -2.7315 -0.0000 -0.0000 4.7500 25.0222 22.3020 10.0450 -7.1250 0.0000 -0.0000 -4.1283 54.2868 -0.9434 -0.0000 -0.0000 0.0000 84.8707 19.5874 25.6429 -50.5863 53.2292 -26.6431 0.0000 -0.0000 -7.2214 -37.7220 35.1434 -24.0008 7.1250 -0.0000 -0.0000 -2.4085 11.6553 -2.8477
-2.9529 14.8227 -2.7628 -0.3750 16.6159 16.3723 0.0000 0.0000 0.0000 -16.2558 6.0298 -31.2571 8.8844 16.7327 55.6894 0.5910 -21.9487 -19.6023 0.7454 -5.5148 -15.3829 0.0000 0.0000 0.0000 7.6424 5.1433 -32.7377 -17.2715 -19.8206 81.9993 -0.2811 -7.8004 -15.7526 -3.0122 10.7147 -31.3238 -6.5459 -1.6856 25.4807 0.3773 -3.5752 8.0642 5.1671 -1.7314 -4.7168 -11.8453 -1.0990 -12.5346 17.0011 0.4252 -6.6802 7.2496 0.6508 0.1231 0.0000 0.0000 0.0000 -100.1479 -45.7087 40.7596 12.1451 -20.0219 -2.1517 -0.0000 -0.0000 10.9299 28.4458 21.0429 11.0076 -7.1250 0.0000 -0.0000 -0.1955 53.6115 -0.0414 0.0000 0.0000 0.0000 86.5119 20.6418 28.8079 -48.7026 52.4586 -25.1417 0.0000 -0.0000 -3.2117 -36.6775 35.4450 -23.3598 7.1250 -0.0000 -0.0000 -1.7797 11.5940 -2.1020
-2.6791 14.8273 -2.5208 -0.5325 16.6374 16.2007 0.0000 0.0000 0.0000 -17.0810 6.2451 -29.1327 8.5626 16.5178 54.5646 0.7243 -21.3784 -20.1678 0.6477 -5.1484 -14.3322 0.0000 0.0000 0.0000 8.0781 5.1719 -36.1252 -17.7934 -19.8829 83.5362 -0.2989 -9.1640 -17.4126 -2.3973 9.6488 -27.8466 -6.6467 -1.6925 25.2870 0.4885 -3.5978 7.9215 5.3476 -1.7407 -4.7611 -7.0050 -0.4652 -12.0543 11.5850 0.4704 -6.1228 4.6837 0.5090 0.1281 -0.0000 0.0000 0.0000 -99.5411 -43.8017 34.0920 11.1282 -18.4845 -1.8164 -0.0000 -0.0000 14.7283 31.6685 21.0072 12.4693 -7.1250 0.0000 -0.0000 3.2521 54.2350 0.7387 -0.0000 0.0000 0.0000 87.9202 21.6759 31.5772 -47.3827 51.8838 -24.0992 0.0000 0.0000 0.5448 -35.2638 36.2437 -22.6872 7.1250 -0.0000 -0.0000 -0.8279 11.9341 -0.9813
-2.4185 14.8226 -2.2802 -0.6313 16.5777 16.4166 0.0000 0.0000 0.0000 -17.8784 6.4291 -27.5072 8.2615 16.3083 53.4992 0.8534 -20.5481 -20.5964 0.7954 -5.6926 -15.8950 0.0000 0.0000 0.0000 8.5910 5.6360 -39.7127 -18.1222 -19.9152 84.5021 -0.3297 -10.0029 -18.6810 -1.8781 8.6074 -24.5748 -6.8213 -1.6509 24.6363 0.5680 -3.5473 7.8100 5.4880 -1.7279 -4.5512 -10.1747 0.6140 -13.7677 12.0971 2.2176 -2.5799 5.4751 1.5291 1.2338 0.0000 0.0000 0.0000 -98.6168 -41.9334 29.3519 10.6191 -17.7020 -1.6582 -0.0000 -0.0000 14.1842 30.4919 20.2047 11.4958 -7.1250 0.0000 -0.0000 2.1290 53.0941 0.4241 0.0000 0.0000 0.0000 89.0466 22.3964 34.3900 -46.8771 51.6556 -23.7020 0.0000 0.0000 3.3495 -34.3741 36.8891 -22.3237 7.1250 -0.0000 -0.0000 -0.1949 12.3008 -0.2320
-2.1369 14.8230 -2.0218 -0.6728 16.2574 16.3829 0.0000 0.0000 0.0000 -18.8219 6.4245 -25.3995 7.9474 16.0805 52.3731 0.9316 -19.6506 -20.6954 0.8188 -5.7740 -16.1300 0.0000 0.0000 0.0000 8.8824 6.3491 -42.7790 -18.2029 -19.9224 84.7392 -0.4504 -9.5083 -19.5025 -1.4217 7.5403 -21.3262 -6.9300 -1.5365 24.1344 0.5554 -3.3985 7.7924 5.4701 -1.6681 -4.3354 -9.4945 0.4285 -12.3693 12.5659 1.8281 -3.5687 5.4656 1.2866 0.7783 -0.0000 0.0000 0.0000 -97.3050 -39.8812 26.8289 10.4764 -17.4813 -1.6151 -0.0000 -0.0000 10.1773 31.1109 20.6757 12.0288 -7.1250 0.0000 -0.0000 2.7072 53.7466 0.5825 -0.0000 0.0000 0.0000 89.9536 22.9934 37.1029 -46.6061 51.5315 -23.4896 0.0000 0.0000 5.1086 -34.6400 37.5289 -22.8243 7.1250 -0.0000 -0.0000 -0.1604 13.0539 -0.1925
-1.8471 14.8269 -1.7576 -0.4968 15.9537 16.0609 0.0000 0.0000 0.0000 -20.0091 6.2322 -22.8116 7.6195 15.8321 51.1801 1.0204 -18.4034 -20.7571 0.9623 -6.2460 -17.5000 0.0000 0.0000 0.0000 8.8929 6.9930 -45.4240 -18.0671 -19.9102 84.3405 -0.6081 -8.1081 -19.8509 -1.3402 7.3298 -20.6962 -7.0619 -1.3514 24.0497 0.4881 -3.1900 7.8398 5.4123 -1.5720 -4.2655 -8.9816 0.2934 -11.3824 12.7500 1.5633 -4.2398 5.4119 1.1106 0.4617 0.0000 -0.0000 0.0000 -95.9565 -37.5866 25.7761 10.5934 -17.6623 -1.6504 -0.0000 -0.0000 5.1458 31.7392 21.1555 12.5843 -7.1250 0.0000 -0.0000 3.3044 54.4166 0.7652 0.0000 -0.0000 0.0000 90.7371 23.6253 39.3345 -46.3008 51.3901 -23.2509 0.0000 0.0000 6.0204 -35.8002 38.3421 -24.1046 7.1250 -0.0000 -0.0000 -0.5247 14.2993 -0.6380
-1.5629 14.8314 -1.4939 -0.2600 15.8460 15.4907 0.0000 0.0000 0.0000 -21.1438 6.0081 -19.9109 7.2772 15.5609 49.9151 1.0267 -17.1656 -20.3213 1.1564 -6.8274 -19.2052 0.0000 0.0000 0.0000 8.9780 7.5521 -47.6180 -17.6857 -19.8711 83.2194 -0.6879 -6.9405 -19.6990 -2.1627 9.1971 -26.4139 -7.2018 -1.1251 24.3888 0.5270 -2.9481 7.9508 5.4863 -1.4549 -4.3330 -9.0686 0.0682 -10.5844 13.0653 1.2755 -4.9301 5.5066 0.9355 0.1675 0.0000 -0.0000 0.0000 -94.6151 -35.1287 26.2924 10.9495 -18.2109 -1.7601 -0.0000 0.0000 -0.3994 27.7933 21.0196 10.7060 -7.1250 0.0000 -0.0000 -0.8756 53.4562 -0.1821 0.0000 -0.0000 0.0000 91.2803 24.2976 41.1388 -46.1128 51.3022 -23.1040 0.0000 0.0000 6.6075 -37.2932 38.9001 -25.5600 7.1250 -0.0000 -0.0000 -1.1113 15.4188 -1.3670
-1.2736 14.8373 -1.2111 -0.2334 15.4199 15.0249 0.0000 0.0000 0.0000 -22.0805 6.1088 -17.2259 6.9356 15.2774 48.6305 0.9124 -16.3109 -19.1931 1.0862 -6.6239 -18.6058 0.0000 0.0000 0.0000 9.2281 8.7202 -49.5806 -17.0683 -19.7927 81.3998 -0.7278 -5.8758 -19.3046 -3.7015 11.7522 -34.8609 -7.3531 -0.7869 24.3017 0.6454 -2.5311 8.1160 5.5856 -1.2689 -4.1505 -9.4919 0.0787 -10.3754 13.0067 1.3282 -5.0124 5.5592 0.9604 0.1009 0.0000 -0.0000 0.0000 -93.2316 -32.6295 27.4278 11.3631 -18.8427 -1.8915 -0.0000 0.0000 -4.9256 27.1305 21.0432 10.4251 -7.1250 0.0000 -0.0000 -1.5743 53.3515 -0.3234 0.0000 -0.0000 0.0000 91.8786 25.2178 42.6005 -45.6518 51.0839 -22.7448 0.0000 0.0000 7.5877 -38.8343 39.3218 -27.0268 7.1250 -0.0000 -0.0000 -1.7472 16.4413 -2.1711
-0.9798 14.8491 -0.9226 -0.1869 15.2169 14.6743 0.0000 0.0000 0.0000 -22.9796 5.9504 -14.6709 6.6035 14.9887 47.3583 0.7729 -15.2145 -17.7280 0.9639 -6.2511 -17.5148 0.0000 0.0000 0.0000 9.4171 10.0109 -51.2923 -16.2583 -19.6610 79.0003 -0.7731 -4.6518 -18.9357 -5.4168 13.8383 -42.5936 -7.1602 -0.6045 24.0664 0.6240 -2.2320 8.2837 5.3598 -1.1369 -3.9043 -9.5869 0.4241 -10.6718 12.3361 1.7756 -4.4393 5.3805 1.1956 0.2596 0.0000 0.0000 0.0000 -91.8973 -30.1806 27.3766 11.6051 -19.2098 -1.9704 -0.0000 0.0000 -5.9542 24.9176 20.7761 9.3575 -7.1250 0.0000 -0.0000 -3.7896 52.6416 -0.7135 0.0000 0.0000 0.0000 92.7581 26.3015 43.6761 -44.9129 50.7257 -22.1713 0.0000 0.0000 9.0305 -40.1539 39.8452 -28.3940 7.1250 -0.0000 -0.0000 -2.2273 17.5033 -2.7958
-0.6816 14.8657 -0.6278 -0.1808 15.1195 14.3490 0.0000 0.0000 0.0000 -23.7792 5.6763 -12.2330 6.3021 14.7148 46.1823 0.5917 -13.9940 -15.7618 0.9268 -6.1331 -17.1712 0.0000 0.0000 0.0000 9.5917 11.3279 -52.6805 -15.2505 -19.4503 75.9901 -0.7829 -3.7497 -18.4835 -6.1595 14.5811 -45.6185 -6.7967 -0.4459 23.7973 0.6541 -1.9206 8.4608 5.0905 -0.9972 -3.6368 -9.6530 0.5866 -10.6881 11.7322 1.9882 -4.2870 5.2083 1.2978 0.2806 0.0000 -0.0000 0.0000 -90.1609 -27.3872 29.9122 12.1817 -20.0766 -2.1643 -0.0000 0.0000 -8.2393 23.3027 20.7667 8.6831 -7.1250 0.0000 -0.0000 -5.4293 52.3343 -0.9826 0.0000 -0.0000 0.0000 93.3216 27.3227 44.4900 -44.3588 50.4505 -21.7432 0.0000 0.0000 10.2703 -40.9076 40.0133 -29.1224 7.1250 -0.0000 -0.0000 -2.5388 17.9846 -3.2011
-0.3720 14.8994 -0.3224 -0.3272 15.0249 13.7591 0.0000 0.0000 0.0000 -24.4519 5.2616 -9.5267 6.0090 14.4370 45.0177 0.3825 -12.6692 -13.2554 0.9179 -6.1043 -17.0873 0.0000 0.0000 0.0000 9.7817 12.3839 -53.4861 -14.1336 -19.1541 72.6122 -0.8839 -0.9885 -18.1467 -6.0546 14.4810 -45.2004 -6.2175 -0.2613 23.7797 0.7098 -1.5431 8.7068 4.7179 -0.8192 -3.4314 -9.3846 0.4233 -9.8248 11.5281 1.7539 -5.4148 5.0810 1.1415 -0.1585 0.0000 -0.0000 0.0000 -88.7289 -24.7483 31.7284 12.6289 -20.7411 -2.3202 -0.0000 0.0000 -8.4234 22.5250 20.4877 8.2591 -7.1250 0.0000 -0.0000 -6.1288 51.9012 -1.0447 0.0000 -0.0000 0.0000 93.7980 28.3403 45.0223 -43.8188 50.1765 -21.3276 0.0000 0.0000 11.2221 -41.7849 39.7613 -29.7505 7.1250 -0.0000 -0.0000 -3.0500 18.0959 -3.8509
